<svg xmlns="http://www.w3.org/2000/svg" width="39" height="56" fill="none" viewBox="0 0 39 56">
  <path stroke="#7EB693" stroke-miterlimit="10" stroke-width="2" d="M1.85 42.068h34.881M5.791 48.5h27m-14-47v14m.075-.716v26.432M29.925 4.553l-11.06 11.084M34.18 8.816 18.865 24.163m17.866-8.526L18.866 32.689m18.716-9.379L18.866 42.07m18.716-10.233L27.373 42.069M1 31.837l10.209 10.232M8.657 4.553l10.209 11.084M4.403 8.816l14.463 15.347M1.85 14.784 18.866 32.69M1 22.458l17.866 18.758m.425 13.642C9.191 54.858 1 46.406 1 35.978V20.022C1 9.596 9.19 1.143 19.291 1.143c10.103 0 18.291 8.453 18.291 18.88v15.954c.002 10.429-8.188 18.88-18.291 18.88Z"/>
</svg>
