<svg xmlns="http://www.w3.org/2000/svg" width="50" height="51" fill="none" viewBox="0 0 50 51">
  <path fill="#F9EAB6" d="M44.564 40.545c-1.756-1.769-6.009-4.35-8.072-5.391-2.687-1.354-2.908-1.464-5.02.105-1.41 1.047-2.346 1.982-3.995 1.63-1.648-.35-5.231-2.334-8.368-5.46-3.137-3.127-5.235-6.814-5.588-8.457-.353-1.643.598-2.569 1.636-3.98 1.462-1.99 1.351-2.323.101-5.01-.974-2.09-3.631-6.302-5.407-8.05-1.9-1.876-1.9-1.544-3.124-1.035a17.71 17.71 0 0 0-2.856 1.522C2.1 7.595 1.12 8.571.433 10.04c-.687 1.467-.995 4.907 2.551 11.348 3.546 6.442 6.034 9.736 11.184 14.871 5.15 5.135 9.11 7.896 14.899 11.143 7.16 4.01 9.907 3.228 11.38 2.543 1.471-.686 2.452-1.659 3.63-3.428a17.597 17.597 0 0 0 1.526-2.853c.51-1.22.841-1.22-1.039-3.118Z"/>
  <path stroke="#7EB693" stroke-miterlimit="10" stroke-width="3" d="M46.72 33.627c-1.565-1.577-5.355-3.878-7.195-4.805-2.395-1.206-2.592-1.305-4.474.093-1.256.934-2.09 1.768-3.56 1.454-1.47-.313-4.663-2.08-7.46-4.867-2.795-2.788-4.665-6.073-4.98-7.538-.314-1.464.534-2.29 1.458-3.548 1.303-1.774 1.205-2.07.09-4.464-.867-1.863-3.236-5.618-4.819-7.175-1.693-1.672-1.693-1.377-2.784-.923-.888.373-1.74.828-2.546 1.357-1.577 1.047-2.452 1.918-3.064 3.225-.612 1.308-.887 4.374 2.274 10.116 3.16 5.742 5.378 8.678 9.968 13.254 4.59 4.577 8.12 7.038 13.28 9.932 6.382 3.574 8.83 2.877 10.142 2.266 1.312-.61 2.186-1.478 3.236-3.055.53-.804.986-1.655 1.36-2.542.454-1.088.75-1.088-.926-2.78Z"/>
</svg>
